<svg width="205" height="36" viewBox="0 0 205 36" fill="none" xmlns="http://www.w3.org/2000/svg">
<path d="M14.1934 10.1914V16.2646C14.1934 16.4463 14.2168 16.5723 14.2637 16.6426C14.3164 16.707 14.4102 16.7393 14.5449 16.7393H14.9141C15.1895 16.7334 15.333 16.9004 15.3447 17.2402V19.0244C15.3447 19.335 15.1865 19.5107 14.8701 19.5518C14.665 19.5752 14.5361 19.6133 14.4834 19.666C14.4307 19.7188 14.4043 19.8447 14.4043 20.0439V21.0811C14.4277 21.4502 14.2578 21.6436 13.8945 21.6611H10.8887C10.6777 21.6611 10.54 21.623 10.4756 21.5469C10.4111 21.4766 10.3789 21.3213 10.3789 21.0811V20.1758C10.3789 19.9297 10.332 19.7598 10.2383 19.666C10.1445 19.5664 9.98047 19.5166 9.74609 19.5166H6.31836C5.9082 19.5166 5.61816 19.4316 5.44824 19.2617C5.28418 19.0859 5.20215 18.7871 5.20215 18.3652C5.20215 17.8027 5.26953 17.3633 5.4043 17.0469C5.56836 16.6543 6.04004 15.9922 6.81934 15.0605L9.05176 12.3799C10.1709 11.0381 10.9971 10.1826 11.5303 9.81348C11.7705 9.64941 12.0605 9.51465 12.4004 9.40918C12.7461 9.30371 13.0684 9.25098 13.3672 9.25098C13.6602 9.25098 13.8711 9.32422 14 9.4707C14.1289 9.61719 14.1934 9.85742 14.1934 10.1914ZM10.502 14.7529V14.3223C10.502 13.7949 10.3555 13.5312 10.0625 13.5312C9.83984 13.5312 9.63184 13.6514 9.43848 13.8916L8.08496 15.5527C7.69238 16.0391 7.49609 16.3877 7.49609 16.5986C7.49609 16.751 7.57812 16.8506 7.74219 16.8975C7.90625 16.9385 8.31348 16.9678 8.96387 16.9854L9.6582 16.9941C9.95703 16.9941 10.1592 16.9619 10.2646 16.8975C10.3701 16.8271 10.4316 16.6924 10.4492 16.4932C10.4844 16.1709 10.502 15.5908 10.502 14.7529ZM22.7451 20H16.7598C16.2324 20 15.9688 19.8506 15.9688 19.5518C15.9688 19.3994 16.0244 19.2588 16.1357 19.1299C16.2471 18.9951 16.6074 18.6406 17.2168 18.0664C18.3477 17 19.1855 16.0068 19.7305 15.0869C20.0117 14.6182 20.1523 14.2139 20.1523 13.874C20.1523 13.5811 20.0674 13.3496 19.8975 13.1797C19.7275 13.0039 19.499 12.916 19.2119 12.916C18.9424 12.916 18.7373 12.9541 18.5967 13.0303C18.4561 13.1006 18.1455 13.3379 17.665 13.7422C17.5361 13.8477 17.3662 13.9004 17.1553 13.9004C16.8799 13.9004 16.625 13.7949 16.3906 13.584C16.1621 13.3672 16.0479 13.1328 16.0479 12.8809C16.0479 12.6523 16.1533 12.3945 16.3643 12.1074C16.5752 11.8145 16.8535 11.5391 17.1992 11.2812C18.4648 10.373 19.8682 9.91895 21.4092 9.91895C22.5811 9.91895 23.5508 10.1445 24.3184 10.5957C24.6641 10.8008 24.9424 11.0879 25.1533 11.457C25.3643 11.8262 25.4697 12.2129 25.4697 12.6172C25.4697 13.6426 24.7607 14.7559 23.3428 15.957C22.8389 16.3789 22.5869 16.6953 22.5869 16.9062C22.5869 17.0703 22.6631 17.2109 22.8154 17.3281C22.9678 17.4395 23.1523 17.4951 23.3691 17.4951C23.8848 17.4951 24.3447 17.2959 24.749 16.8975C24.9541 16.6982 25.0889 16.5781 25.1533 16.5371C25.2236 16.4961 25.3174 16.4756 25.4346 16.4756C25.9502 16.4756 26.208 16.915 26.208 17.7939C26.208 18.2334 26.123 18.6787 25.9531 19.1299C25.7891 19.5811 25.5635 19.9707 25.2764 20.2988C24.9717 20.6504 24.6377 20.8262 24.2744 20.8262C24.1279 20.8262 24.0107 20.7939 23.9229 20.7295C23.835 20.6709 23.7354 20.5566 23.624 20.3867C23.5186 20.2227 23.4131 20.1172 23.3076 20.0703C23.208 20.0234 23.0205 20 22.7451 20Z" fill="white"/>
<path d="M8.75 28.5574C10.6761 29.6694 12.8323 30.3235 15.0517 30.469C17.271 30.6144 19.4941 30.2474 21.5489 29.3963C23.6037 28.5451 25.4352 27.2327 26.9017 25.5605C28.3681 23.8883 29.4303 21.9012 30.0059 19.7529" stroke="#FFFBFF" stroke-width="3" stroke-linecap="round"/>
<circle cx="3.80195" cy="21.5" r="1.5" fill="#FFFBFF"/>
<path d="M23.25 3.44263C21.3239 2.33057 19.1677 1.67651 16.9483 1.53104C14.729 1.38558 12.5059 1.75261 10.4511 2.60374C8.39627 3.45488 6.56479 4.7673 5.09832 6.43948C3.63186 8.11167 2.56972 10.0988 1.99408 12.2471" stroke="#FFFBFF" stroke-width="3" stroke-linecap="round"/>
<circle cx="28.8019" cy="10.5" r="1.5" fill="#FFFBFF"/>
<path d="M57.2617 2.61914C60.918 2.61914 62.7461 3.375 62.7461 4.88672C62.7461 5.29687 62.6523 5.63086 62.4648 5.88867C62.2773 6.14648 61.9199 6.43359 61.3926 6.75C60.9355 7.03125 60.6426 7.40039 60.5137 7.85742C60.3965 8.31445 60.3379 9.24023 60.3379 10.6348C60.3379 11.4551 60.4902 11.959 60.7949 12.1465C60.9707 12.2637 61.2344 12.334 61.5859 12.3574C61.9492 12.3809 62.793 12.3926 64.1172 12.3926C65.3242 12.3926 66.0742 12.3281 66.3672 12.1992C66.6602 12.0703 66.8066 11.748 66.8066 11.2324C66.8066 9.68555 66.7363 8.60742 66.5957 7.99805C66.4551 7.38867 66.1797 6.97266 65.7695 6.75C65.2539 6.45703 64.9141 6.21094 64.75 6.01172C64.5859 5.80078 64.5039 5.52539 64.5039 5.18555C64.5039 4.70508 64.6855 4.27148 65.0488 3.88477C65.4121 3.48633 65.8867 3.2168 66.4727 3.07617C67.6914 2.7832 69.2207 2.63672 71.0605 2.63672C73.2168 2.63672 74.8047 2.83594 75.8242 3.23438C76.8555 3.62109 77.3711 4.23047 77.3711 5.0625C77.3711 5.76562 77.0078 6.29297 76.2812 6.64453C75.8242 6.85547 75.5254 7.06055 75.3848 7.25977C75.2441 7.44727 75.1328 7.80469 75.0508 8.33203C75.0039 8.625 74.9453 9.92578 74.875 12.2344C74.8047 14.543 74.7695 16.377 74.7695 17.7363C74.7695 20.1152 74.8574 21.627 75.0332 22.2715C75.127 22.623 75.2324 22.8574 75.3496 22.9746C75.4668 23.0918 75.8359 23.3262 76.457 23.6777C76.9023 23.9238 77.125 24.2988 77.125 24.8027C77.125 25.6934 76.5918 26.3438 75.5254 26.7539C74.4707 27.1523 72.7539 27.3516 70.375 27.3516C68.2891 27.3516 66.748 27.1465 65.752 26.7363C64.8496 26.3613 64.3984 25.7812 64.3984 24.9961C64.3984 24.3281 64.7441 23.8066 65.4355 23.4316C65.7754 23.2441 66.0039 23.0566 66.1211 22.8691C66.25 22.6816 66.373 22.3359 66.4902 21.832C66.7012 20.8477 66.8066 19.6406 66.8066 18.2109C66.8066 17.4727 66.6953 17.0156 66.4727 16.8398C66.2617 16.6641 65.6992 16.5762 64.7852 16.5762C62.6875 16.5762 61.3516 16.6934 60.7773 16.9277C60.543 17.0215 60.3965 17.2969 60.3379 17.7539C60.2676 18.3164 60.2324 19.0078 60.2324 19.8281C60.2324 21.1641 60.4199 22.125 60.7949 22.7109C60.9238 22.8984 61.2285 23.1387 61.709 23.4316C62.2012 23.7129 62.4473 24.1758 62.4473 24.8203C62.4473 25.6406 61.8789 26.2676 60.7422 26.7012C59.6055 27.1348 57.9824 27.3516 55.873 27.3516C53.9512 27.3516 52.3809 27.1523 51.1621 26.7539C50.6348 26.5781 50.2188 26.332 49.9141 26.0156C49.6211 25.6875 49.4746 25.3301 49.4746 24.9434C49.4746 24.5566 49.5684 24.2578 49.7559 24.0469C49.9434 23.8359 50.3535 23.5664 50.9863 23.2383C51.3145 23.0742 51.543 22.8633 51.6719 22.6055C51.8125 22.3477 51.918 21.9141 51.9883 21.3047C52.1641 19.9336 52.252 18.1406 52.252 15.9258C52.252 15.5156 52.2461 15.0293 52.2344 14.4668C52.1875 11.6543 52.1641 10.0488 52.1641 9.65039C52.1758 8.64258 52.0879 7.98047 51.9004 7.66406C51.7246 7.33594 51.25 6.97852 50.4766 6.5918C49.9609 6.3457 49.7031 5.97656 49.7031 5.48438C49.7031 4.30078 50.8516 3.48047 53.1484 3.02344C54.4844 2.75391 55.8555 2.61914 57.2617 2.61914ZM88.5684 9.47461C90.6074 9.47461 92.3359 9.99023 93.7539 11.0215C94.5039 11.5723 95.0254 12.2051 95.3184 12.9199C95.623 13.623 95.7754 14.5957 95.7754 15.8379L95.7402 18.457C95.7402 20.2734 95.8691 21.4512 96.127 21.9902C96.2559 22.248 96.3789 22.4121 96.4961 22.4824C96.6133 22.5527 96.8594 22.6172 97.2344 22.6758C97.6094 22.7344 97.7969 22.9805 97.7969 23.4141C97.7969 23.9766 97.5684 24.5625 97.1113 25.1719C96.666 25.7812 96.0859 26.291 95.3711 26.7012C94.4922 27.2168 93.5723 27.4746 92.6113 27.4746C91.3809 27.4746 90.4082 27.0527 89.6934 26.209C89.4473 25.9043 89.2188 25.752 89.0078 25.752C88.7734 25.752 88.4629 25.8984 88.0762 26.1914C86.9043 27.0469 85.5742 27.4746 84.0859 27.4746C82.5508 27.4746 81.3086 27.1465 80.3594 26.4902C79.7383 26.0566 79.2461 25.4941 78.8828 24.8027C78.5195 24.0996 78.3379 23.3672 78.3379 22.6055C78.3379 21.3867 78.8301 20.3086 79.8145 19.3711C81.3496 17.8945 83.6465 17.1504 86.7051 17.1387C87.3848 17.1387 87.8125 17.0742 87.9883 16.9453C88.1641 16.8047 88.252 16.4883 88.252 15.9961C88.252 14.7539 88.123 13.8574 87.8652 13.3066C87.6074 12.7441 87.1855 12.4629 86.5996 12.4629C86.248 12.4629 85.9316 12.5684 85.6504 12.7793C85.3809 12.9902 85.041 13.377 84.6309 13.9395C83.5879 15.4277 82.498 16.1719 81.3613 16.1719C80.7871 16.1719 80.3184 16.002 79.9551 15.6621C79.5918 15.3223 79.4102 14.877 79.4102 14.3262C79.4102 13.7637 79.6328 13.2012 80.0781 12.6387C80.5352 12.0762 81.1504 11.584 81.9238 11.1621C84.0449 10.0371 86.2598 9.47461 88.5684 9.47461ZM87.3906 19.6523C86.875 19.6523 86.4238 19.8633 86.0371 20.2852C85.6621 20.707 85.4746 21.2109 85.4746 21.7969C85.4746 22.3594 85.6094 22.8164 85.8789 23.168C86.1484 23.5078 86.5059 23.6777 86.9512 23.6777C87.8887 23.6777 88.3574 22.8867 88.3574 21.3047C88.3574 20.6602 88.2871 20.2266 88.1465 20.0039C88.0176 19.7812 87.7656 19.6641 87.3906 19.6523ZM108.977 9.49219C111.062 9.49219 112.902 10.0137 114.496 11.0566C116.008 12.0527 116.764 13.2891 116.764 14.7656C116.764 15.7852 116.412 16.6113 115.709 17.2441C115.053 17.8418 114.262 18.1406 113.336 18.1406C112.363 18.1406 111.631 17.7891 111.139 17.0859C110.986 16.8633 110.764 16.2949 110.471 15.3809C110.154 14.3965 109.551 13.9043 108.66 13.9043C108.016 13.9043 107.471 14.1855 107.025 14.748C106.592 15.3105 106.375 16.002 106.375 16.8223C106.375 18.2285 106.879 19.4766 107.887 20.5664C108.707 21.4453 109.738 21.8848 110.98 21.8848C111.566 21.8848 112.059 21.8379 112.457 21.7441C112.855 21.6387 113.377 21.4336 114.021 21.1289C114.186 21.0469 114.367 21.0059 114.566 21.0059C114.965 21.0059 115.316 21.1934 115.621 21.5684C115.926 21.9434 116.078 22.3828 116.078 22.8867C116.078 23.4141 115.861 23.9707 115.428 24.5566C114.994 25.1309 114.426 25.6348 113.723 26.0684C112.199 27.0059 110.4 27.4746 108.326 27.4746C105.912 27.4746 103.855 26.7715 102.156 25.3652C99.9766 23.584 98.8867 21.3164 98.8867 18.5625C98.8867 15.9141 99.9004 13.7227 101.928 11.9883C103.861 10.3242 106.211 9.49219 108.977 9.49219ZM127.838 3.86719L127.68 9.36914C127.668 9.91992 127.662 10.7285 127.662 11.7949C127.662 12.9785 127.68 13.6758 127.715 13.8867C127.797 14.3672 128.043 14.6074 128.453 14.6074C128.805 14.6074 129.344 14.3848 130.07 13.9395C130.797 13.4824 131.16 13.1426 131.16 12.9199C131.16 12.791 131.031 12.5566 130.773 12.2168C130.586 11.9707 130.492 11.7363 130.492 11.5137C130.492 10.248 132.051 9.61523 135.168 9.61523C136.785 9.61523 138.062 9.7793 139 10.1074C139.375 10.2363 139.686 10.459 139.932 10.7754C140.178 11.0918 140.301 11.4316 140.301 11.7949C140.301 12.3223 140.049 12.6914 139.545 12.9023C139.439 12.9492 139.1 13.0254 138.525 13.1309C138.01 13.2246 137.342 13.5469 136.521 14.0977C135.701 14.6367 135.291 15.0293 135.291 15.2754C135.291 15.4395 135.783 16.2129 136.768 17.5957C137.764 18.9668 138.689 20.1621 139.545 21.1816C140.096 21.8496 140.523 22.3184 140.828 22.5879C141.145 22.8574 141.578 23.1445 142.129 23.4492C142.973 23.9062 143.395 24.4277 143.395 25.0137C143.395 25.6348 143.125 26.1211 142.586 26.4727C142.059 26.8242 141.332 27 140.406 27H134.711C133.996 26.9883 133.439 26.7246 133.041 26.209L130.123 22.4648C129.35 21.4805 128.875 20.8945 128.699 20.707C128.535 20.5195 128.395 20.4258 128.277 20.4258C128.137 20.4258 128.043 20.5312 127.996 20.7422C127.949 20.9531 127.926 21.3516 127.926 21.9375C127.926 22.4648 127.984 22.8516 128.102 23.0977C128.219 23.332 128.488 23.6191 128.91 23.959C129.215 24.2051 129.367 24.5684 129.367 25.0488C129.367 25.8691 128.934 26.4609 128.066 26.8242C127.199 27.1875 125.77 27.3691 123.777 27.3691C121.434 27.3691 119.91 27.2695 119.207 27.0703C118.809 26.9531 118.469 26.7188 118.188 26.3672C117.906 26.0039 117.766 25.623 117.766 25.2246C117.766 24.7793 118.012 24.3926 118.504 24.0645C118.926 23.7949 119.195 23.5898 119.312 23.4492C119.43 23.3086 119.523 23.0859 119.594 22.7812C119.863 21.1406 119.992 18.6094 119.98 15.1875V11.3379C119.98 10.0254 119.91 9.1875 119.77 8.82422C119.641 8.46094 119.312 8.24414 118.785 8.17383C117.824 8.04492 117.344 7.64648 117.344 6.97852C117.344 6.5332 117.555 6.13477 117.977 5.7832C118.398 5.41992 119.09 5.0625 120.051 4.71094C123.121 3.57422 125.395 3.00586 126.871 3.00586C127.539 3.00586 127.861 3.29297 127.838 3.86719ZM159.707 19.125H151.445C151.082 19.125 150.9 19.2832 150.9 19.5996C150.9 20.3613 151.311 21.082 152.131 21.7617C152.963 22.4297 153.854 22.7637 154.803 22.7637C155.365 22.7637 155.986 22.6582 156.666 22.4473C157.357 22.2246 157.926 21.9551 158.371 21.6387C158.77 21.3574 159.086 21.2168 159.32 21.2168C159.625 21.2168 159.924 21.4043 160.217 21.7793C160.51 22.1543 160.656 22.541 160.656 22.9395C160.656 23.7832 160.129 24.5977 159.074 25.3828C157.211 26.7773 155.061 27.4746 152.623 27.4746C150.162 27.4746 148.1 26.7598 146.436 25.3301C145.627 24.627 144.959 23.7773 144.432 22.7812C143.74 21.457 143.395 20.0625 143.395 18.5977C143.395 16.6289 143.992 14.8594 145.188 13.2891C146.219 11.9297 147.531 10.916 149.125 10.248C150.32 9.74414 151.615 9.49219 153.01 9.49219C155.236 9.49219 157.129 10.125 158.688 11.3906C159.473 12.0234 160.105 12.7734 160.586 13.6406C161.137 14.625 161.412 15.5859 161.412 16.5234C161.412 17.2852 161.254 17.9121 160.938 18.4043C160.621 18.8848 160.211 19.125 159.707 19.125ZM151.902 15.8379H153.678C154.428 15.8379 154.803 15.4922 154.803 14.8008C154.803 14.168 154.621 13.6523 154.258 13.2539C153.895 12.8555 153.42 12.6562 152.834 12.6562C152.178 12.6562 151.662 12.9141 151.287 13.4297C150.936 13.9102 150.76 14.3965 150.76 14.8887C150.76 15.2402 150.842 15.4863 151.006 15.627C151.182 15.7676 151.48 15.8379 151.902 15.8379ZM170.764 9.59766C171.385 9.59766 171.76 9.68555 171.889 9.86133C172.029 10.0371 172.152 10.5996 172.258 11.5488C172.316 12.0645 172.498 12.3223 172.803 12.3223C173.037 12.3223 173.26 12.1523 173.471 11.8125C174.408 10.3477 175.633 9.61523 177.145 9.61523C178.211 9.61523 179.084 9.96094 179.764 10.6523C180.092 10.9922 180.361 11.4316 180.572 11.9707C180.783 12.498 180.889 13.0078 180.889 13.5C180.889 14.0508 180.76 14.6191 180.502 15.2051C180.244 15.7793 179.91 16.2539 179.5 16.6289C178.75 17.3438 177.83 17.7012 176.74 17.7012C176.143 17.7012 175.639 17.5957 175.229 17.3848C174.83 17.1738 174.303 16.7461 173.646 16.1016C173.4 15.8555 173.172 15.7324 172.961 15.7324C172.633 15.7324 172.416 15.9199 172.311 16.2949C172.217 16.6582 172.17 17.4316 172.17 18.6152C172.17 20.3848 172.234 21.5918 172.363 22.2363C172.445 22.5879 172.557 22.834 172.697 22.9746C172.85 23.1035 173.166 23.2383 173.646 23.3789C174.701 23.6953 175.229 24.2461 175.229 25.0312C175.229 25.5117 175.059 25.9336 174.719 26.2969C174.379 26.6484 173.928 26.8828 173.365 27C172.24 27.2344 170.588 27.3516 168.408 27.3516C166.334 27.3516 164.758 27.1699 163.68 26.8066C162.719 26.4785 162.238 25.9102 162.238 25.1016C162.238 24.4922 162.59 23.9473 163.293 23.4668C163.633 23.2441 163.867 23.0449 163.996 22.8691C164.125 22.6816 164.213 22.4297 164.26 22.1133C164.447 21.0469 164.541 19.0723 164.541 16.1895C164.541 15.6621 164.482 15.2871 164.365 15.0645C164.248 14.8301 164.014 14.6426 163.662 14.502C162.83 14.1738 162.414 13.6992 162.414 13.0781C162.414 12.5156 162.701 12.0352 163.275 11.6367C163.85 11.2266 164.811 10.8223 166.158 10.4238C167.963 9.88477 169.498 9.60938 170.764 9.59766ZM188.5 9.49219C189.086 9.49219 190.041 9.62109 191.365 9.87891C191.635 9.92578 191.857 9.94922 192.033 9.94922C192.232 9.94922 192.619 9.84375 193.193 9.63281C193.463 9.52734 193.691 9.47461 193.879 9.47461C194.418 9.47461 194.963 9.82031 195.514 10.5117C195.959 11.0625 196.322 11.666 196.604 12.3223C196.885 12.9785 197.025 13.5469 197.025 14.0273C197.025 14.4961 196.861 14.8887 196.533 15.2051C196.205 15.5098 195.795 15.6621 195.303 15.6621C194.893 15.6621 194.523 15.5625 194.195 15.3633C193.879 15.1641 193.363 14.7246 192.648 14.0449C191.898 13.3184 191.277 12.9551 190.785 12.9551C190.457 12.9551 190.17 13.0781 189.924 13.3242C189.689 13.5586 189.572 13.8398 189.572 14.168C189.572 14.7422 190.123 15.2812 191.225 15.7852C193.205 16.6758 194.723 17.6484 195.777 18.7031C196.668 19.5938 197.113 20.6836 197.113 21.9727C197.113 23.6016 196.398 24.9609 194.969 26.0508C193.738 27 192.232 27.4746 190.451 27.4746C189.994 27.4746 189.162 27.3984 187.955 27.2461C186.818 27.1172 186.18 27.0527 186.039 27.0527C185.887 27.0527 185.711 27.0703 185.512 27.1055C185.172 27.1523 184.926 27.1758 184.773 27.1758C184.223 27.1758 183.789 27.0352 183.473 26.7539C182.992 26.3203 182.547 25.6406 182.137 24.7148C181.727 23.7773 181.521 22.9746 181.521 22.3066C181.521 21.2285 181.943 20.6895 182.787 20.6895C183.115 20.6895 183.414 20.8008 183.684 21.0234C183.965 21.2344 184.545 21.8086 185.424 22.7461C185.904 23.2617 186.303 23.6191 186.619 23.8184C186.936 24.0059 187.275 24.0996 187.639 24.0996C188.025 24.0996 188.336 24 188.57 23.8008C188.805 23.5898 188.922 23.3145 188.922 22.9746C188.922 22.4473 188.471 21.9668 187.568 21.5332C185.682 20.6074 184.316 19.6523 183.473 18.668C182.641 17.6836 182.225 16.5469 182.225 15.2578C182.225 13.8633 182.652 12.6621 183.508 11.6543C184.727 10.2129 186.391 9.49219 188.5 9.49219Z" fill="white"/>
</svg>
