<svg width="156" height="38" viewBox="0 0 156 38" fill="none" xmlns="http://www.w3.org/2000/svg">
<g clip-path="url(#clip0)">
<path fill-rule="evenodd" clip-rule="evenodd" d="M16.3126 13.6838C17.0747 13.0754 18.0207 12.7706 19.1511 12.7706C20.2551 12.7706 21.1942 13.0806 21.9698 13.7007C22.7446 14.3207 23.1721 15.1133 23.2509 16.0783H14.8538C15.0641 15.0912 15.55 14.2928 16.3126 13.6838ZM25.7737 19.7305C26.8513 19.7305 27.7185 19.5126 28.3754 19.0761C29.1374 18.5936 29.5187 17.8931 29.5187 16.9746C29.5187 15.2753 28.9405 13.7013 27.7843 12.2542C26.6275 10.8072 25.1427 9.7163 23.3296 8.98085C22.0681 8.47558 20.6615 8.22266 19.1118 8.22266C15.9836 8.22266 13.4152 9.19938 11.4047 11.1516C9.39414 13.1045 8.38916 15.4583 8.38916 18.2148C8.38916 20.9946 9.44027 23.3315 11.5431 25.2265C13.6452 27.1218 16.2739 28.0693 19.4271 28.0693C21.1086 28.0693 22.725 27.8397 24.2761 27.3806C26.1157 26.8525 27.4559 26.0833 28.2972 25.0721C28.7701 24.5209 29.007 23.9696 29.007 23.4183C29.007 21.9714 28.1656 21.2476 26.4842 21.2476C26.1157 21.2476 25.1698 21.5523 23.6456 22.1607C22.121 22.7696 20.8202 23.0738 19.7427 23.0738C18.4549 23.0738 17.3638 22.7872 16.4707 22.2126C15.5771 21.6386 15.0647 20.8115 14.9331 19.7317L25.7737 19.7305Z" fill="#FFFBFF"/>
<path fill-rule="evenodd" clip-rule="evenodd" d="M33.0655 25.1746C35.0103 27.0814 37.5855 28.0341 40.7922 28.0341C42.7104 28.0341 44.3139 27.7592 45.6018 27.2073C47.3884 26.427 48.2827 25.4735 48.2827 24.3475C48.2827 23.6815 48.0521 23.1133 47.5926 22.6418C47.1326 22.172 46.5342 21.9355 45.7992 21.9355C45.2999 21.9355 44.6688 22.0743 43.9068 22.3488C43.1441 22.6244 42.3162 22.7618 41.4232 22.7618C39.8985 22.7618 38.7159 22.3027 37.8751 21.3836C37.1389 20.5568 36.7711 19.4546 36.7711 18.0759C36.7711 16.7664 37.126 15.676 37.8357 14.8025C38.6241 13.838 39.7412 13.3555 41.1865 13.3555C42.0795 13.3555 42.927 13.4994 43.7289 13.7861C44.5304 14.0734 45.181 14.2168 45.6805 14.2168C46.4425 14.2168 47.0729 13.9872 47.5729 13.528C48.0718 13.0687 48.322 12.5064 48.322 11.8397C48.322 10.5535 47.4549 9.58903 45.7205 8.94566C44.4326 8.48644 42.9215 8.25684 41.1871 8.25684C37.8757 8.25684 35.2207 9.18168 33.2237 11.0302C31.226 12.8793 30.2278 15.2628 30.2278 18.1796C30.2271 21.0061 31.1737 23.3377 33.0655 25.1746Z" fill="#FFFBFF"/>
<path fill-rule="evenodd" clip-rule="evenodd" d="M56.0466 14.9415C56.8088 13.9543 57.8863 13.4601 59.2794 13.4601C60.6453 13.4601 61.7099 13.9654 62.4726 14.9759C63.1559 15.8488 63.4979 16.9054 63.4979 18.1456C63.4979 19.4322 63.1688 20.5004 62.5126 21.3502C61.7499 22.3608 60.6724 22.8659 59.2799 22.8659C57.9132 22.8659 56.8486 22.3601 56.0866 21.3502C55.4028 20.4772 55.0613 19.4096 55.0613 18.1456C55.0608 16.8827 55.3893 15.8151 56.0466 14.9415ZM51.4339 25.2092C53.4838 27.1621 56.099 28.1382 59.2787 28.1382C62.4848 28.1382 65.0994 27.1737 67.1235 25.2442C69.0681 23.3613 70.0405 21.0063 70.0405 18.1811C70.0405 15.3331 69.0552 12.956 67.0842 11.0486C65.1129 9.14237 62.5113 8.18896 59.2787 8.18896C56.0984 8.18896 53.5035 9.1482 51.4929 11.0661C49.4825 12.9846 48.4775 15.3558 48.4775 18.1811C48.4775 20.983 49.4628 23.3264 51.4339 25.2092Z" fill="#FFFBFF"/>
<path fill-rule="evenodd" clip-rule="evenodd" d="M28.1015 0.54541C13.4532 0.54541 1.60339 7.21866 1.60339 15.5027C1.60339 19.0115 3.74678 22.2336 7.37918 24.8224C5.5925 22.6934 4.58077 20.335 4.58077 17.8035C4.58077 9.23154 16.192 2.2704 30.4835 2.2704C39.7134 2.2704 47.8116 5.14693 52.3965 9.51884C48.2876 4.22732 38.939 0.54541 28.1015 0.54541Z" fill="#FFFBFF"/>
<path fill-rule="evenodd" clip-rule="evenodd" d="M78.9921 23.8125V19.5238H83.4073C86.5083 19.5238 88.9519 18.7774 90.7399 17.2837C92.5265 15.7907 93.4207 13.6892 93.4207 10.9782C93.4207 8.24504 92.4349 6.12027 90.4637 4.6039C88.5977 3.1569 86.0747 2.43311 82.8951 2.43311H76.9815C75.2729 2.43311 74.0903 2.73148 73.4334 3.32764C72.7759 3.9244 72.4481 4.96814 72.4481 6.45885V23.8009C72.4481 26.5078 73.5385 27.861 75.72 27.861C77.9015 27.8615 78.9921 26.5118 78.9921 23.8125ZM78.9921 7.70481H81.8304C84.8256 7.70481 86.3245 8.79633 86.3245 10.9782C86.3245 13.2067 84.8256 14.3204 81.8304 14.3204H78.9921V7.70481Z" fill="#FFFBFF"/>
<path fill-rule="evenodd" clip-rule="evenodd" d="M111.839 27.8621C113.941 27.8621 114.993 26.5048 114.993 23.7891V12.5709C114.993 9.87906 113.941 8.53229 111.839 8.53229C110.55 8.53229 109.539 9.11796 108.803 10.2893C107.515 8.95713 105.807 8.29102 103.677 8.29102C100.76 8.29102 98.3556 9.32486 96.4637 11.3919C94.6764 13.3215 93.7828 15.5843 93.7828 18.1794C93.7828 20.7523 94.6359 22.9918 96.345 24.898C98.2111 26.9652 100.576 27.999 103.441 27.999C105.702 27.999 107.488 27.2986 108.803 25.8969C109.434 27.207 110.445 27.8621 111.839 27.8621ZM101.387 15.0441C102.145 14.1024 103.178 13.6315 104.487 13.6315C105.82 13.6315 106.853 14.1024 107.586 15.0441C108.213 15.8711 108.527 16.8932 108.527 18.1107C108.527 19.3285 108.213 20.3618 107.586 21.2115C106.853 22.176 105.821 22.6585 104.487 22.6585C103.153 22.6585 102.106 22.176 101.347 21.2115C100.693 20.3618 100.367 19.3285 100.367 18.1107C100.367 16.9171 100.707 15.8944 101.387 15.0441Z" fill="#FFFBFF"/>
<path fill-rule="evenodd" clip-rule="evenodd" d="M129.775 10.7374L125.872 19.6269L122.245 11.2199C121.851 10.2782 121.496 9.64706 121.18 9.3248C120.655 8.7968 119.932 8.53223 119.013 8.53223C118.119 8.53223 117.377 8.7968 116.785 9.3248C116.194 9.85279 115.898 10.5072 115.898 11.2876C115.898 11.8388 116.016 12.3558 116.253 12.8383L122.676 25.9622L120.05 30.9535C119.699 31.6617 119.524 32.2899 119.524 32.8383C119.524 33.6612 119.814 34.3121 120.392 34.7922C120.97 35.2713 121.732 35.5113 122.679 35.5113C123.809 35.5113 124.741 34.765 125.478 33.2718L135.215 13.1157C135.556 12.4041 135.728 11.7608 135.728 11.1861C135.728 9.41745 134.676 8.53281 132.574 8.53281C131.365 8.53223 130.432 9.26768 129.775 10.7374Z" fill="#FFFBFF"/>
<path fill-rule="evenodd" clip-rule="evenodd" d="M151.392 22.4182H145.097L153.558 12.9133C154.421 11.9477 154.852 11.1312 154.852 10.4645C154.852 9.72849 154.523 9.26285 153.866 9.06763C153.209 8.8724 152.197 8.77393 150.831 8.77393H140.62C137.913 8.77393 136.56 9.61252 136.56 11.2891C136.56 12.9891 137.9 13.8387 140.581 13.8387H146.061L137.309 23.7276C136.678 24.4398 136.363 25.1514 136.363 25.8641C136.363 27.0128 137.48 27.5868 139.714 27.5868H151.343C154.024 27.5868 155.365 26.7371 155.365 25.0372C155.365 23.2913 154.041 22.4182 151.392 22.4182Z" fill="#FFFBFF"/>
</g>
<defs>
<clipPath id="clip0">
<rect width="155.372" height="36.5714" fill="white" transform="translate(0.48761 0.54541)"/>
</clipPath>
</defs>
</svg>
