<svg width="160" height="37" viewBox="0 0 160 37" fill="none" xmlns="http://www.w3.org/2000/svg">
<path d="M140.608 0.207031C143.49 0.207031 146.232 0.871043 148.692 2.05884C149.078 2.23392 149.467 2.44346 149.851 2.65319L148.164 4.1561L145.635 1.53524L141.277 5.37874L138.711 2.61781L130.697 9.78156L135.828 15.4075L133.825 17.1543L138.887 22.7803L136.883 24.5263L144.124 32.5286L148.41 28.6147L152.137 32.8091C151.398 33.3682 150.59 33.9285 149.712 34.4169C147.041 35.9192 143.947 36.7912 140.644 36.7912C130.485 36.7912 122.227 28.5812 122.227 18.4834C122.191 8.45388 130.451 0.207031 140.608 0.207031ZM137.234 17.3644L141.627 13.4505L145.564 17.8183L141.17 21.7318L137.234 17.3644ZM140.363 24.9124L144.72 20.9639L148.692 25.3313L144.299 29.2454L140.363 24.9124ZM134.107 9.9218L138.5 6.00792L142.436 10.3757L138.042 14.2894L134.107 9.9218ZM142.154 7.82452L145.423 4.88943L148.376 8.1393L145.107 11.1091L142.154 7.82452ZM147.989 21.2777L151.257 18.3425L154.21 21.6262L150.941 24.5633L147.989 21.2777ZM150.871 27.8827L154.14 24.9469L157.091 28.1966L153.823 31.166L150.871 27.8827ZM152.207 12.7865L154.386 10.8295L156.353 12.9968L154.175 14.9531L152.207 12.7865ZM149.395 6.32196L151.574 4.33062L153.543 6.53168L151.362 8.48853L149.395 6.32196ZM154.983 19.2516L157.162 17.2947L159.165 19.4613L156.952 21.4176L154.983 19.2516ZM145.177 14.3943L148.447 11.459L151.398 14.7082L148.131 17.644L145.177 14.3943Z" fill="#FFFBFF"/>
<path d="M10.1283 14.3886H9.96255L6.85019 26.2773H4.30629L0.487602 9.38721H3.12705L5.76712 21.9901H5.93198L8.99563 9.38721H11.0941L14.3705 21.9901H14.5355L16.94 9.38721H19.698L15.8783 26.2773H13.3325L10.1283 14.3886Z" fill="#FFFBFF"/>
<path d="M23.0466 19.0866H28.4432C28.3261 16.586 27.1233 15.5863 25.851 15.5863C24.4133 15.5863 23.3048 16.7057 23.0466 19.0866ZM30.3286 23.5665V25.3773C29.2681 25.9965 27.8546 26.4733 26.1566 26.4733C22.1978 26.4733 20.5716 23.9958 20.5716 20.2323C20.5716 16.6098 22.3861 13.9893 25.9217 13.9893C28.8672 13.9893 30.6832 15.9202 30.6832 19.8023V20.6838H22.9993C22.9993 23.5416 24.1536 24.8045 26.5822 24.8045C27.8547 24.8046 29.0332 24.3512 30.3286 23.5665Z" fill="#FFFBFF"/>
<path d="M36.1656 24.5632C36.92 24.8967 37.7456 24.946 38.3359 24.946C40.0796 24.946 41.3981 23.8486 41.3981 19.9904C41.3981 16.9649 40.314 15.9881 38.7355 15.9881C37.7919 15.9881 37.1087 16.251 36.1656 16.7741V24.5632H36.1656ZM36.1904 15.0117C36.8958 14.6318 38.0976 14.1298 39.371 14.1298C42.294 14.1298 43.8734 16.1785 43.8734 19.9904C43.8734 24.4455 41.7517 26.6133 38.3359 26.6133C37.0856 26.6133 35.153 26.2082 33.738 25.4442V8.81786L36.1905 8.22314V15.0117H36.1904Z" fill="#FFFBFF"/>
<path d="M54.4818 22.6932H54.5999L59.6429 9.37646H62.5672V26.2679H60.0216V14.0222H59.8091L55.0001 26.2679H53.493L48.6829 14.3085H48.4715V26.2679H46.35V9.37646H49.2029L54.4818 22.6932Z" fill="#FFFBFF"/>
<path d="M72.9676 20.2316C72.9676 17.0158 71.6722 15.6586 70.0695 15.6586C68.5144 15.6586 67.1697 17.0158 67.1697 20.2316C67.1697 23.4956 68.3968 24.8045 70.0695 24.8045C71.7421 24.8045 72.9676 23.4956 72.9676 20.2316ZM64.6958 20.2316C64.6958 16.0611 66.9591 13.9893 70.0695 13.9893C73.1817 13.9893 75.4438 16.0611 75.4438 20.2316C75.4438 24.3044 73.2991 26.4733 70.0695 26.4733C66.8405 26.4733 64.6958 24.3044 64.6958 20.2316Z" fill="#FFFBFF"/>
<path d="M77.3079 15.7534C78.3684 15.1092 80.6086 13.9893 83.3184 13.9893C86.1466 13.9893 87.2054 15.1092 87.2054 17.5622V26.1872H84.7558V18.1109C84.7558 16.2293 83.8381 15.8958 82.6346 15.8958C81.6929 15.8958 80.4893 16.3253 79.7593 16.754V26.1872H77.3079V15.7534H77.3079Z" fill="#FFFBFF"/>
<path d="M92.3939 19.0866H97.791C97.675 16.586 96.4716 15.5863 95.1987 15.5863C93.7606 15.5863 92.6543 16.7057 92.3939 19.0866ZM99.6761 23.5665V25.3773C98.6161 25.9965 97.2018 26.4733 95.5045 26.4733C91.547 26.4733 89.9197 23.9958 89.9197 20.2323C89.9197 16.6098 91.7335 13.9893 95.2694 13.9893C98.2167 13.9893 100.032 15.9202 100.032 19.8023V20.6838H92.3476C92.3476 23.5416 93.5026 24.8045 95.9304 24.8045C97.2018 24.8046 98.3821 24.3512 99.6761 23.5665Z" fill="#FFFBFF"/>
<path d="M109.822 13.9893H112.345L108.079 25.8989C106.898 29.1867 105.462 30.9021 102.752 30.9021V28.9499C104.356 28.9499 105.344 27.6629 105.911 25.8989L101.386 13.9893H103.979L106.995 22.7557H107.137L109.822 13.9893Z" fill="#FFFBFF"/>
</svg>
