<svg width="32" height="32" viewBox="0 0 32 32" fill="none" xmlns="http://www.w3.org/2000/svg">
<path d="M14.1934 10.1914V16.2646C14.1934 16.4463 14.2168 16.5723 14.2637 16.6426C14.3164 16.707 14.4102 16.7393 14.5449 16.7393H14.9141C15.1895 16.7334 15.333 16.9004 15.3447 17.2402V19.0244C15.3447 19.335 15.1865 19.5107 14.8701 19.5518C14.665 19.5752 14.5361 19.6133 14.4834 19.666C14.4307 19.7188 14.4043 19.8447 14.4043 20.0439V21.0811C14.4277 21.4502 14.2578 21.6436 13.8945 21.6611H10.8887C10.6777 21.6611 10.54 21.623 10.4756 21.5469C10.4111 21.4766 10.3789 21.3213 10.3789 21.0811V20.1758C10.3789 19.9297 10.332 19.7598 10.2383 19.666C10.1445 19.5664 9.98047 19.5166 9.74609 19.5166H6.31836C5.9082 19.5166 5.61816 19.4316 5.44824 19.2617C5.28418 19.0859 5.20215 18.7871 5.20215 18.3652C5.20215 17.8027 5.26953 17.3633 5.4043 17.0469C5.56836 16.6543 6.04004 15.9922 6.81934 15.0605L9.05176 12.3799C10.1709 11.0381 10.9971 10.1826 11.5303 9.81348C11.7705 9.64941 12.0605 9.51465 12.4004 9.40918C12.7461 9.30371 13.0684 9.25098 13.3672 9.25098C13.6602 9.25098 13.8711 9.32422 14 9.4707C14.1289 9.61719 14.1934 9.85742 14.1934 10.1914ZM10.502 14.7529V14.3223C10.502 13.7949 10.3555 13.5312 10.0625 13.5312C9.83984 13.5312 9.63184 13.6514 9.43848 13.8916L8.08496 15.5527C7.69238 16.0391 7.49609 16.3877 7.49609 16.5986C7.49609 16.751 7.57812 16.8506 7.74219 16.8975C7.90625 16.9385 8.31348 16.9678 8.96387 16.9854L9.6582 16.9941C9.95703 16.9941 10.1592 16.9619 10.2646 16.8975C10.3701 16.8271 10.4316 16.6924 10.4492 16.4932C10.4844 16.1709 10.502 15.5908 10.502 14.7529ZM22.7451 20H16.7598C16.2324 20 15.9688 19.8506 15.9688 19.5518C15.9688 19.3994 16.0244 19.2588 16.1357 19.1299C16.2471 18.9951 16.6074 18.6406 17.2168 18.0664C18.3477 17 19.1855 16.0068 19.7305 15.0869C20.0117 14.6182 20.1523 14.2139 20.1523 13.874C20.1523 13.5811 20.0674 13.3496 19.8975 13.1797C19.7275 13.0039 19.499 12.916 19.2119 12.916C18.9424 12.916 18.7373 12.9541 18.5967 13.0303C18.4561 13.1006 18.1455 13.3379 17.665 13.7422C17.5361 13.8477 17.3662 13.9004 17.1553 13.9004C16.8799 13.9004 16.625 13.7949 16.3906 13.584C16.1621 13.3672 16.0479 13.1328 16.0479 12.8809C16.0479 12.6523 16.1533 12.3945 16.3643 12.1074C16.5752 11.8145 16.8535 11.5391 17.1992 11.2812C18.4648 10.373 19.8682 9.91895 21.4092 9.91895C22.5811 9.91895 23.5508 10.1445 24.3184 10.5957C24.6641 10.8008 24.9424 11.0879 25.1533 11.457C25.3643 11.8262 25.4697 12.2129 25.4697 12.6172C25.4697 13.6426 24.7607 14.7559 23.3428 15.957C22.8389 16.3789 22.5869 16.6953 22.5869 16.9062C22.5869 17.0703 22.6631 17.2109 22.8154 17.3281C22.9678 17.4395 23.1523 17.4951 23.3691 17.4951C23.8848 17.4951 24.3447 17.2959 24.749 16.8975C24.9541 16.6982 25.0889 16.5781 25.1533 16.5371C25.2236 16.4961 25.3174 16.4756 25.4346 16.4756C25.9502 16.4756 26.208 16.915 26.208 17.7939C26.208 18.2334 26.123 18.6787 25.9531 19.1299C25.7891 19.5811 25.5635 19.9707 25.2764 20.2988C24.9717 20.6504 24.6377 20.8262 24.2744 20.8262C24.1279 20.8262 24.0107 20.7939 23.9229 20.7295C23.835 20.6709 23.7354 20.5566 23.624 20.3867C23.5186 20.2227 23.4131 20.1172 23.3076 20.0703C23.208 20.0234 23.0205 20 22.7451 20Z" fill="white"/>
<path d="M8.75 28.5574C10.6761 29.6694 12.8323 30.3235 15.0517 30.469C17.271 30.6144 19.4941 30.2474 21.5489 29.3963C23.6037 28.5451 25.4352 27.2327 26.9017 25.5605C28.3681 23.8883 29.4303 21.9012 30.0059 19.7529" stroke="#FFFBFF" stroke-width="3" stroke-linecap="round"/>
<circle cx="3.80194" cy="21.5" r="1.5" fill="#FFFBFF"/>
<path d="M23.25 3.44263C21.3239 2.33057 19.1677 1.67651 16.9483 1.53104C14.729 1.38558 12.5059 1.75261 10.4511 2.60374C8.39627 3.45488 6.56479 4.7673 5.09832 6.43948C3.63186 8.11167 2.56972 10.0988 1.99408 12.2471" stroke="#FFFBFF" stroke-width="3" stroke-linecap="round"/>
<circle cx="28.8019" cy="10.5" r="1.5" fill="#FFFBFF"/>
</svg>
