<svg width="167" height="39" viewBox="0 0 167 39" fill="none" xmlns="http://www.w3.org/2000/svg">
<path fill-rule="evenodd" clip-rule="evenodd" d="M18.8222 36.053C9.61759 36.053 2.15597 28.5478 2.15597 19.2892C2.15597 10.0306 9.61759 2.52548 18.8222 2.52548C22.2789 2.52548 25.4884 3.58344 28.1499 5.39482C24.3823 8.82002 22.0127 13.7769 22.0127 19.2892C22.0127 24.8016 24.3823 29.7584 28.1499 33.1836C25.4884 34.995 22.2789 36.053 18.8222 36.053ZM0.207397 19.2892C0.207397 29.6299 8.54118 38.0127 18.8222 38.0127C23.164 38.0127 27.1615 36.5158 30.3276 34.009L31.2999 33.2391L30.3276 32.4692C26.4491 29.3982 23.9613 24.6358 23.9613 19.2892C23.9613 13.9427 26.4491 9.18031 30.3276 6.10925L31.2999 5.33936L30.3276 4.56948C27.1615 2.06262 23.164 0.565775 18.8222 0.565775C8.54118 0.565775 0.207397 8.94855 0.207397 19.2892Z" fill="#FFFBFF"/>
<path fill-rule="evenodd" clip-rule="evenodd" d="M29.1056 34.0091C32.2727 36.5158 36.2701 38.0127 40.6119 38.0127C50.893 38.0127 59.2267 29.6299 59.2267 19.2892C59.2267 8.94855 50.893 0.565775 40.6119 0.565775C36.2701 0.565775 32.2727 2.06264 29.1056 4.56937L28.1328 5.33932L29.1055 6.10933C32.9851 9.18038 35.4729 13.9427 35.4729 19.2892C35.4729 24.6358 32.9851 29.3981 29.1055 32.4691L28.1328 33.2392L29.1056 34.0091ZM31.2834 33.1836C35.0518 29.7584 37.4214 24.8015 37.4214 19.2892C37.4214 13.7769 35.0518 8.82007 31.2834 5.39486C33.9458 3.58341 37.1553 2.52549 40.6119 2.52549C49.8166 2.52549 57.2782 10.0306 57.2782 19.2892C57.2782 28.5478 49.8166 36.053 40.6119 36.053C37.1553 36.053 33.9458 34.9951 31.2834 33.1836Z" fill="#FFFBFF"/>
<path d="M87.8391 20.1105C87.8391 18.5604 88.8492 17.287 90.4996 17.287C92.0766 17.287 93.1412 18.5055 93.1412 20.1105C93.1412 21.7155 92.0766 22.934 90.4996 22.934C88.8492 22.934 87.8391 21.6606 87.8391 20.1105ZM94.9386 20.1105V15.701H93.032V16.7717C92.4272 15.9777 91.5096 15.4793 90.2623 15.4793C87.8034 15.4793 85.8758 17.4179 85.8758 20.1105C85.8758 22.8052 87.8034 24.7417 90.2623 24.7417C91.5096 24.7417 92.4272 24.2433 93.032 23.4493V24.52H94.9386V20.1105ZM159.369 20.1105C159.369 18.5604 160.379 17.287 162.03 17.287C163.609 17.287 164.671 18.5055 164.671 20.1105C164.671 21.7155 163.609 22.934 162.03 22.934C160.379 22.934 159.369 21.6606 159.369 20.1105ZM166.471 20.1105V12.1595H164.562V16.7717C163.957 15.9777 163.04 15.4793 161.793 15.4793C159.334 15.4793 157.406 17.4179 157.406 20.1105C157.406 22.8052 159.334 24.7417 161.793 24.7417C163.04 24.7417 163.957 24.2433 164.562 23.4493V24.52H166.471V20.1105ZM118.606 17.1962C119.834 17.1962 120.624 17.9712 120.825 19.3355H116.275C116.479 18.062 117.247 17.1962 118.606 17.1962ZM118.643 15.4793C116.073 15.4793 114.276 17.3609 114.276 20.1105C114.276 22.915 116.147 24.7417 118.772 24.7417C120.092 24.7417 121.302 24.4101 122.366 23.5063L121.432 22.085C120.697 22.6742 119.761 23.0079 118.881 23.0079C117.652 23.0079 116.533 22.4356 116.258 20.8475H122.77C122.788 20.6089 122.807 20.3681 122.807 20.1105C122.788 17.3609 121.1 15.4793 118.643 15.4793ZM141.666 20.1105C141.666 18.5604 142.676 17.287 144.326 17.287C145.903 17.287 146.968 18.5055 146.968 20.1105C146.968 21.7155 145.903 22.934 144.326 22.934C142.676 22.934 141.666 21.6606 141.666 20.1105ZM148.765 20.1105V15.701H146.859V16.7717C146.252 15.9777 145.336 15.4793 144.089 15.4793C141.63 15.4793 139.702 17.4179 139.702 20.1105C139.702 22.8052 141.63 24.7417 144.089 24.7417C145.336 24.7417 146.252 24.2433 146.859 23.4493V24.52H148.765V20.1105ZM130.898 20.1105C130.898 22.7862 132.75 24.7417 135.576 24.7417C136.897 24.7417 137.777 24.446 138.73 23.69L137.815 22.1399C137.099 22.6573 136.347 22.934 135.52 22.934C133.997 22.915 132.878 21.8084 132.878 20.1105C132.878 18.4126 133.997 17.306 135.52 17.287C136.347 17.287 137.099 17.5636 137.815 18.081L138.73 16.531C137.777 15.7749 136.897 15.4793 135.576 15.4793C132.75 15.4793 130.898 17.4348 130.898 20.1105ZM155.48 15.4793C154.38 15.4793 153.664 15.9967 153.169 16.7717V15.701H151.279V24.52H153.187V19.5762C153.187 18.1169 153.811 17.306 155.058 17.306C155.445 17.306 155.848 17.3609 156.251 17.5277L156.839 15.72C156.417 15.5532 155.867 15.4793 155.48 15.4793ZM104.369 16.4021C103.451 15.7939 102.187 15.4793 100.793 15.4793C98.5713 15.4793 97.1413 16.55 97.1413 18.3028C97.1413 19.7409 98.2059 20.6279 100.167 20.9045L101.068 21.0334C102.114 21.1812 102.607 21.4578 102.607 21.9562C102.607 22.6383 101.91 23.0269 100.608 23.0269C99.2873 23.0269 98.334 22.6024 97.6915 22.104L96.7928 23.5971C97.8385 24.3721 99.1592 24.7417 100.589 24.7417C103.122 24.7417 104.589 23.5422 104.589 21.8633C104.589 20.3132 103.434 19.5023 101.526 19.2256L100.627 19.0947C99.8018 18.9849 99.1404 18.8202 99.1404 18.2289C99.1404 17.5826 99.764 17.1962 100.81 17.1962C101.929 17.1962 103.012 17.6207 103.544 17.9522L104.369 16.4021ZM128.97 15.4793C127.87 15.4793 127.154 15.9967 126.661 16.7717V15.701H124.771V24.52H126.677V19.5762C126.677 18.1169 127.301 17.306 128.548 17.306C128.935 17.306 129.338 17.3609 129.741 17.5277L130.329 15.72C129.907 15.5532 129.357 15.4793 128.97 15.4793ZM112.699 15.701H109.581V13.0254H107.653V15.701H105.874V17.4538H107.653V21.4768C107.653 23.5232 108.443 24.7417 110.698 24.7417C111.525 24.7417 112.478 24.4841 113.083 24.0596L112.533 22.4166C111.964 22.7481 111.34 22.915 110.845 22.915C109.891 22.915 109.581 22.3237 109.581 21.4388V17.4538H112.699V15.701ZM84.1897 24.52V18.9849C84.1897 16.9005 82.8689 15.4983 80.7397 15.4793C79.6205 15.4603 78.4656 15.8108 77.6571 17.0484C77.0524 16.0706 76.0991 15.4793 74.7594 15.4793C73.8229 15.4793 72.9074 15.7559 72.1913 16.7886V15.701H70.2826V24.52H72.2081V19.6311C72.2081 18.1 73.0522 17.287 74.3562 17.287C75.6224 17.287 76.2629 18.1169 76.2629 19.6121V24.52H78.1905V19.6311C78.1905 18.1 79.0703 17.287 80.3365 17.287C81.6384 17.287 82.262 18.1169 82.262 19.6121V24.52H84.1897Z" fill="#FFFBFF"/>
</svg>
