<svg width="111" height="37" viewBox="0 0 111 37" fill="none" xmlns="http://www.w3.org/2000/svg">
<path d="M79.4139 9.06604C81.9004 9.06604 83.9158 7.11179 83.9158 4.70191C83.9158 2.29061 81.9004 0.334473 79.4139 0.334473C76.9301 0.334473 74.9156 2.29061 74.9156 4.70191C74.9156 7.11179 76.9301 9.06604 79.4139 9.06604ZM44.9344 11.4229C44.7313 11.9179 43.269 15.9245 39.7329 20.077V2.32158L30.3109 4.12806V36.3118H39.7329V26.3636C42.4618 30.334 43.8094 36.3118 43.8094 36.3118H55.0948C53.9786 31.8098 49.0954 23.5084 49.0954 23.5084C53.4779 18.1181 55.403 12.3745 55.7091 11.4229H44.9344ZM69.7042 11.087C61.2651 11.3497 56.9812 15.0227 56.9812 22.3242V36.3118H66.1878V24.9052C66.1878 20.5331 66.7778 18.6591 72.1259 18.4803V11.215C71.2258 11.0297 69.7042 11.087 69.7042 11.087ZM14.5094 14.9669C13.3554 14.8932 10.6836 14.7257 10.6836 12.3923C10.6836 9.57655 14.5302 9.57655 15.973 9.57655C18.5099 9.57655 21.7954 10.3038 24.1417 10.9847C24.1417 10.9847 25.4505 11.4323 26.5645 11.8907L26.6679 11.9179V4.20642L26.5258 4.1656C23.7568 3.22577 20.5369 2.32158 14.5675 2.32158C4.27493 2.32158 0.628052 8.1384 0.628052 13.1215C0.628052 15.994 1.89721 22.7543 13.6848 23.5343C14.684 23.5938 17.336 23.742 17.336 26.1533C17.336 28.1442 15.1648 29.3182 11.5131 29.3182C7.51118 29.3182 3.62923 28.3282 1.27134 27.3893V35.3315C4.80117 36.2292 8.78034 36.6778 13.4439 36.6778C23.5077 36.6778 28.015 31.1745 28.015 25.7198C28.015 19.5351 22.9713 15.5168 14.5094 14.9669ZM74.8498 36.3118H83.9822V11.4511H74.8498V36.3118ZM101.178 3.90659V36.3118H110.311V2.32158L101.178 3.90659ZM87.8505 3.90659L96.9754 2.32158V36.3118H87.8505V3.90659Z" fill="#FFFBFF"/>
</svg>
