<svg width="112" height="34" viewBox="0 0 112 34" fill="none" xmlns="http://www.w3.org/2000/svg">
<path d="M48.6172 33.476H39.6462L45.2573 1.13135H54.2278L48.6172 33.476Z" fill="#FFFBFF"/>
<path d="M81.1379 1.92245C79.3684 1.268 76.5619 0.54541 73.0916 0.54541C64.2324 0.54541 57.9939 4.94956 57.9556 11.2462C57.882 15.8918 62.4222 18.4721 65.8179 20.0211C69.2887 21.6039 70.4685 22.637 70.4685 24.0479C70.4332 26.2148 67.664 27.2136 65.0811 27.2136C61.4995 27.2136 59.5804 26.6986 56.6639 25.4931L55.4827 24.9763L54.2273 32.237C56.3313 33.1306 60.2078 33.9236 64.2324 33.9584C73.6455 33.9584 79.7736 29.6224 79.8462 22.9124C79.882 19.2303 77.4846 16.409 72.316 14.1036C69.1783 12.6237 67.2568 11.6258 67.2568 10.1115C67.2936 8.73493 68.882 7.32496 72.4239 7.32496C75.3404 7.25591 77.4832 7.90944 79.1065 8.56343L79.9179 8.90689L81.1379 1.92245V1.92245Z" fill="#FFFBFF"/>
<path d="M93.0607 22.0174C93.7995 20.1593 96.6423 12.9677 96.6423 12.9677C96.605 13.0367 97.3796 11.0752 97.8226 9.87104L98.4496 12.6581C98.4496 12.6581 100.148 20.4003 100.517 22.0174C99.1153 22.0174 94.8326 22.0174 93.0607 22.0174ZM104.134 1.13135H97.1952C95.0553 1.13135 93.4296 1.71582 92.5063 3.815L79.181 33.4755H88.594C88.594 33.4755 90.1438 29.4835 90.4769 28.6237C91.5095 28.6237 100.666 28.6237 101.995 28.6237C102.252 29.7592 103.065 33.4755 103.065 33.4755H111.372L104.134 1.13135V1.13135Z" fill="#FFFBFF"/>
<path d="M32.1532 1.13135L23.3676 23.1873L22.4076 18.7141C20.7833 13.5526 15.6892 7.94474 10.0045 5.15636L18.0518 33.4417H27.5384L41.6393 1.13135H32.1532V1.13135Z" fill="#FFFBFF"/>
<path d="M15.2092 1.13135H0.775712L0.628052 1.78488C11.8871 4.46899 19.3437 10.9389 22.4073 18.7155L19.2696 3.85021C18.7531 1.78442 17.1656 1.19949 15.2092 1.13135Z" fill="#FFFBFF"/>
</svg>
